<svg xmlns="http://www.w3.org/2000/svg" viewBox="0 0 596.09 312.73"><defs><style>.cls-1{fill:none;stroke-width:3px;}.cls-1,.cls-2,.cls-3{stroke:#1d1d1b;stroke-miterlimit:10;}.cls-2{fill:#fff;stroke-width:5px;}.cls-3,.cls-4{fill:#1d1d1b;}</style></defs><g id="Lag_2" data-name="Lag 2"><g id="Layer_1" data-name="Layer 1"><line class="cls-1" x1="544.61" y1="1.5" x2="133.63" y2="1.5"/><line class="cls-1" x1="51.23" y1="1.61" x2="55.19" y2="1.63"/><path class="cls-2" d="M172.84,116.29c0,40.2-30.6,72.79-68.35,72.79s-68.35-32.59-68.35-72.79S66.74,43.5,104.49,43.5h.08C133.27,43.54,172.84,73.92,172.84,116.29Z"/><path class="cls-2" d="M40.43,142.31a85.19,85.19,0,0,0-12.69,45c0,45.14,34.36,81.74,76.75,81.74s76.75-36.6,76.75-81.74a85.19,85.19,0,0,0-12.69-45"/><rect class="cls-3" x="99.11" y="63.46" width="10.76" height="62.55" rx="5.38"/><line class="cls-1" x1="104.48" y1="45.96" x2="104.48" y2="65.87"/><line class="cls-1" x1="104.48" y1="126.43" x2="104.48" y2="141.43"/><path class="cls-4" d="M211.38,99a27.69,27.69,0,0,1-10.6-1.84A15.62,15.62,0,0,1,193.86,92a13.27,13.27,0,0,1-2.44-8H201a6.31,6.31,0,0,0,2.81,5.46,13.14,13.14,0,0,0,7.71,2,11.92,11.92,0,0,0,7.2-2,6.36,6.36,0,0,0,2.65-5.42,7.37,7.37,0,0,0-1.82-5,9.28,9.28,0,0,0-5.22-2.84l-7.29-1.84q-6.87-1.69-10.6-5.86a14.37,14.37,0,0,1-3.73-9.91A13.58,13.58,0,0,1,195,50.76a15.19,15.19,0,0,1,6.46-5.2,24.05,24.05,0,0,1,9.9-1.88q8.61,0,13.67,4a13.23,13.23,0,0,1,5.13,10.73h-9.69a6.34,6.34,0,0,0-2.4-5.24c-1.6-1.28-3.87-1.91-6.79-1.91a10.67,10.67,0,0,0-6.59,1.8,5.93,5.93,0,0,0-2.36,5,7.41,7.41,0,0,0,1.78,5,9.87,9.87,0,0,0,5.1,2.95l7.53,1.92q6.88,1.62,10.57,5.75A14.62,14.62,0,0,1,231,83.78a13.4,13.4,0,0,1-2.44,8,16,16,0,0,1-6.84,5.35A25.8,25.8,0,0,1,211.38,99Z"/><path class="cls-4" d="M236.67,100.51l31.14-41.32,12-5.21L247.58,96.66ZM257.88,99a21.54,21.54,0,0,1-9.4-1.91,13.9,13.9,0,0,1-6.1-5.5,16,16,0,0,1-2.13-8.36V72.8a16,16,0,0,1,2.13-8.4,14,14,0,0,1,6.1-5.46,24.21,24.21,0,0,1,18.85,0,14.11,14.11,0,0,1,6.06,5.46,16,16,0,0,1,2.13,8.4V83.27a16,16,0,0,1-2.13,8.36,14,14,0,0,1-6.06,5.5A21.52,21.52,0,0,1,257.88,99Zm0-7.52a9.45,9.45,0,0,0,6.66-2.21,7.81,7.81,0,0,0,2.4-6V72.8a7.79,7.79,0,0,0-2.4-6.08,11.25,11.25,0,0,0-13.31,0,7.79,7.79,0,0,0-2.4,6.08V83.27a7.81,7.81,0,0,0,2.4,6A9.42,9.42,0,0,0,257.88,91.52Z"/><path class="cls-4" d="M286.64,98.31V57.76h8.73V65.5h2.29l-2.76,4.79q0-6.56,3.11-9.91T307.18,57q7,0,11,4t4,11.17V75h-9.52V72.8a8.54,8.54,0,0,0-2.24-6.34,8.45,8.45,0,0,0-6.18-2.21,8.31,8.31,0,0,0-6.22,2.25,8.62,8.62,0,0,0-2.2,6.3V98.31Z"/><path class="cls-4" d="M348.19,99a21.22,21.22,0,0,1-9.37-2,14.69,14.69,0,0,1-6.22-5.53,15.47,15.47,0,0,1-2.2-8.29V72.8a15.47,15.47,0,0,1,2.2-8.29A14.62,14.62,0,0,1,338.82,59a23.58,23.58,0,0,1,18.78,0,14.61,14.61,0,0,1,6.17,5.53A15.47,15.47,0,0,1,366,72.8v7.3H339.22v3.17q0,4.35,2.32,6.63t6.73,2.29A12,12,0,0,0,354,91a5.18,5.18,0,0,0,2.72-3.32h9.05A12.47,12.47,0,0,1,359.92,96,21.22,21.22,0,0,1,348.19,99Zm9-24V72.8c0-2.9-.74-5.12-2.24-6.67s-3.74-2.32-6.73-2.32-5.1.78-6.65,2.36a9,9,0,0,0-2.32,6.63v1.7l18.57-.08Z"/><path class="cls-4" d="M376.53,98.31V57.76h9.05V65.5h2.36l-2.36,2a9.74,9.74,0,0,1,3.11-7.7q3.1-2.76,8.46-2.76,6.45,0,10.31,3.9t3.86,10.62V98.31h-9.21V72.43a7.76,7.76,0,0,0-2.17-5.9,8.27,8.27,0,0,0-14.2,6.27V98.31Z"/><path class="cls-4" d="M213.69,177.31,228,123.49h11.74L254,177.31H244.9L241.57,164H226.12l-3.24,13.35ZM228,156.89h12.36l-3.62-15c-.63-2.55-1.17-4.84-1.61-6.85s-.75-3.42-.91-4.2c-.16.78-.45,2.17-.87,4.16s-.94,4.26-1.57,6.82Z"/><path class="cls-4" d="M263.57,177.31V136.76h9.05v7.74H275l-2.36,2a9.74,9.74,0,0,1,3.11-7.7q3.11-2.76,8.46-2.76,6.45,0,10.31,3.9t3.86,10.62v26.76h-9.21V151.43a7.76,7.76,0,0,0-2.17-5.9,8.27,8.27,0,0,0-14.2,6.27v25.51Z"/><path class="cls-4" d="M321.58,177.34a11.57,11.57,0,0,1-6.35-1.37,10.72,10.72,0,0,1-2.55-2.09q-3.93-4.17-3.93-11.24V151.43q0-7.08,3.93-11.24a14.43,14.43,0,0,1,2.56-2.1,14.87,14.87,0,0,1,6.39-2.12,19.15,19.15,0,0,1,3-.14l9.92.1.09-12.44h9.21q.12,23.51.23,47l-6.62,6.84C330.83,177.33,325.47,177.28,321.58,177.34Zm4.8-6.74a8.19,8.19,0,0,0,6.06-2.21,8.3,8.3,0,0,0,2.2-6.12V151.8a8.3,8.3,0,0,0-2.2-6.12,8.19,8.19,0,0,0-6.06-2.21,8.62,8.62,0,0,0-6.26,2.18,8.19,8.19,0,0,0-2.24,6.15v10.47a8.19,8.19,0,0,0,2.24,6.15A8.62,8.62,0,0,0,326.38,170.6Z"/><path class="cls-4" d="M372.19,178a21.22,21.22,0,0,1-9.37-1.95,14.69,14.69,0,0,1-6.22-5.53,15.47,15.47,0,0,1-2.2-8.29V151.8a15.47,15.47,0,0,1,2.2-8.29,14.62,14.62,0,0,1,6.22-5.53,23.58,23.58,0,0,1,18.78,0,14.61,14.61,0,0,1,6.17,5.53A15.47,15.47,0,0,1,390,151.8v7.3H363.22v3.17q0,4.35,2.32,6.63t6.73,2.29A12,12,0,0,0,378,170a5.18,5.18,0,0,0,2.72-3.32h9.05a12.47,12.47,0,0,1-5.82,8.26A21.22,21.22,0,0,1,372.19,178Zm9-23.95V151.8c0-2.9-.74-5.12-2.24-6.67s-3.74-2.32-6.73-2.32-5.1.78-6.65,2.36a9,9,0,0,0-2.32,6.63v1.7l18.57-.08Z"/><path class="cls-4" d="M400.94,177.31V136.76h8.74v7.74H412l-2.75,4.79q0-6.56,3.11-9.91t9.17-3.35q7,0,11,4t4,11.17V154H427V151.8a8.51,8.51,0,0,0-2.25-6.34,8.42,8.42,0,0,0-6.18-2.21,8.28,8.28,0,0,0-6.21,2.25,8.62,8.62,0,0,0-2.21,6.3v25.51Z"/><path class="cls-4" d="M460.92,178a22.38,22.38,0,0,1-8.38-1.44,13.75,13.75,0,0,1-5.67-4,10.35,10.35,0,0,1-2.32-6h9.21a4.2,4.2,0,0,0,2.16,3.17,9.47,9.47,0,0,0,5,1.18h3.39a9.41,9.41,0,0,0,5.66-1.4,4.43,4.43,0,0,0,1.89-3.76,4.17,4.17,0,0,0-1.69-3.5,10.63,10.63,0,0,0-5.08-1.73l-5.51-.74c-4.77-.69-8.28-1.93-10.5-3.72s-3.35-4.48-3.35-8.07a10.46,10.46,0,0,1,4-8.78c2.64-2.06,6.57-3.09,11.76-3.09h3q7,0,11.18,3a10.57,10.57,0,0,1,4.65,8h-9.21a3.87,3.87,0,0,0-2-2.77,8.85,8.85,0,0,0-4.65-1.06h-3q-3.54,0-5.15,1.21A4.2,4.2,0,0,0,454.7,148a3.77,3.77,0,0,0,1.42,3.2,9.88,9.88,0,0,0,4.49,1.52l5.66.73q7.49,1,11,3.87c2.37,1.89,3.55,4.66,3.55,8.29a11,11,0,0,1-4.14,9.15Q472.58,178,464.31,178Z"/><path class="cls-4" d="M508.15,178a21.22,21.22,0,0,1-9.37-1.95,14.69,14.69,0,0,1-6.22-5.53,15.47,15.47,0,0,1-2.2-8.29V151.8a15.47,15.47,0,0,1,2.2-8.29,14.62,14.62,0,0,1,6.22-5.53,23.56,23.56,0,0,1,18.77,0,14.63,14.63,0,0,1,6.18,5.53,15.47,15.47,0,0,1,2.21,8.29v7.3H499.18v3.17q0,4.35,2.32,6.63c1.54,1.53,3.79,2.29,6.73,2.29a12,12,0,0,0,5.7-1.18,5.18,5.18,0,0,0,2.72-3.32h9.05a12.47,12.47,0,0,1-5.82,8.26A21.22,21.22,0,0,1,508.15,178Zm9-23.95V151.8q0-4.35-2.24-6.67t-6.73-2.32c-2.89,0-5.11.78-6.65,2.36a9,9,0,0,0-2.32,6.63v1.7l18.57-.08Z"/><path class="cls-4" d="M536.48,177.31V136.76h9.06v7.74h2.36l-2.36,2a9.74,9.74,0,0,1,3.11-7.7q3.11-2.76,8.46-2.76,6.45,0,10.31,3.9t3.86,10.62v26.76h-9.21V151.43a7.8,7.8,0,0,0-2.17-5.9,8.28,8.28,0,0,0-14.21,6.27v25.51Z"/><path class="cls-4" d="M237.84,256.31V202.49h18.24a27.07,27.07,0,0,1,11.07,2.07,17,17,0,0,1,7.26,5.78,15,15,0,0,1,2.6,8.81v20.42a15.21,15.21,0,0,1-2.6,8.85,17,17,0,0,1-7.26,5.82,27.07,27.07,0,0,1-11.07,2.07ZM248,248.42h8.08c3.35,0,6-.79,7.9-2.36a8,8,0,0,0,2.87-6.49V219.15a7.87,7.87,0,0,0-2.87-6.41c-1.91-1.57-4.55-2.36-7.9-2.36H248Z"/><path class="cls-4" d="M303.88,256.21a22.35,22.35,0,0,1-9.36-2,14.67,14.67,0,0,1-6.22-5.55,15.59,15.59,0,0,1-2.21-8.33V229.86a15.58,15.58,0,0,1,2.21-8.32,14.61,14.61,0,0,1,6.22-5.55,23.45,23.45,0,0,1,18.77,0,14.68,14.68,0,0,1,6.18,5.55,15.57,15.57,0,0,1,2.2,8.32v7.33H294.91v3.18q0,4.37,2.32,6.66c2.11,2.09,6.73,2.3,6.73,2.3H313l8.53,6.87C315.88,256.33,310,256.34,303.88,256.21Zm9-24v-2.3q0-4.37-2.25-6.69t-6.73-2.34a8.9,8.9,0,0,0-6.65,2.37,9.1,9.1,0,0,0-2.32,6.66v1.71l18.58-.08Z"/><path class="cls-4" d="M346,257.31a22.38,22.38,0,0,1-8.38-1.44,13.72,13.72,0,0,1-5.67-4,10.29,10.29,0,0,1-2.32-6h9.21a4.18,4.18,0,0,0,2.16,3.16,9.47,9.47,0,0,0,5,1.18h3.39a9.48,9.48,0,0,0,5.66-1.4,4.42,4.42,0,0,0,1.89-3.74,4.15,4.15,0,0,0-1.69-3.49,10.74,10.74,0,0,0-5.08-1.73l-5.51-.73c-4.77-.69-8.28-1.92-10.5-3.71s-3.35-4.46-3.35-8a10.4,10.4,0,0,1,4-8.74c2.64-2.05,6.57-3.08,11.76-3.08h3q7,0,11.18,2.94a10.52,10.52,0,0,1,4.65,7.93h-9.21a3.84,3.84,0,0,0-2-2.76,8.85,8.85,0,0,0-4.65-1.06h-3q-3.54,0-5.15,1.21a4.18,4.18,0,0,0-1.62,3.56,3.77,3.77,0,0,0,1.42,3.2,9.89,9.89,0,0,0,4.49,1.5l5.66.73q7.49,1,11,3.86c2.37,1.88,3.55,4.64,3.55,8.26a10.86,10.86,0,0,1-4.14,9.1q-4.12,3.24-12.39,3.24Z"/><path class="cls-4" d="M374.72,256.31v-7.82h15.19v-25H376.68v-7.74h22v32.73h13.7v7.82Zm18.81-47.48a7,7,0,0,1-4.57-1.36,4.57,4.57,0,0,1-1.65-3.72,4.79,4.79,0,0,1,1.65-3.84,8.14,8.14,0,0,1,9.13,0,4.79,4.79,0,0,1,1.66,3.84,4.58,4.58,0,0,1-1.66,3.72A7,7,0,0,1,393.53,208.83Z"/><path class="cls-4" d="M421.26,269.55l6.09-7.27h13.07a7.29,7.29,0,0,0,5-1.48,5.43,5.43,0,0,0,1.65-4.27v-3.62l.16-7.51h-2.05l2-1.77a9.5,9.5,0,0,1-3.11,7.52,12.3,12.3,0,0,1-8.38,2.72q-6.71,0-10.55-4.16t-3.86-11.24v-8q0-7.08,3.86-11.24T435.62,215a12.3,12.3,0,0,1,8.38,2.72,9.5,9.5,0,0,1,3.11,7.52l-2-1.77h2l-.16-7.74h9.13v40.91a11.69,11.69,0,0,1-4.13,9.44q-4.14,3.47-11.38,3.46Zm17.43-23.12a8.19,8.19,0,0,0,6.06-2.21,8.3,8.3,0,0,0,2.2-6.12v-7.3a8.3,8.3,0,0,0-2.2-6.12,8.19,8.19,0,0,0-6.06-2.21,7.57,7.57,0,0,0-8.35,8.33v7.3a7.57,7.57,0,0,0,8.35,8.33Z"/><path class="cls-4" d="M468.18,256.31V215.76h9.05v7.74h2.36l-2.36,2a9.77,9.77,0,0,1,3.11-7.7q3.11-2.76,8.46-2.76,6.45,0,10.31,3.9T503,229.55v26.76h-9.21V230.43a7.79,7.79,0,0,0-2.16-5.9,8.28,8.28,0,0,0-14.21,6.27v25.51Z"/><path class="cls-1" d="M53.87,1.62c3,0,24.61.16,39.3,17.82A50.43,50.43,0,0,1,104.48,51.6"/><path class="cls-1" d="M1.5,52.23c0-3,.16-24.61,17.83-39.3A50.4,50.4,0,0,1,51.48,1.62"/><path class="cls-1" d="M52.11,311.22c-3,0-24.61-.15-39.29-17.82A50.46,50.46,0,0,1,1.5,261.24"/><path class="cls-1" d="M594.59,260.61c0,3-.16,24.61-17.83,39.3a50.4,50.4,0,0,1-32.15,11.31"/><line class="cls-1" x1="51.8" y1="311.23" x2="544.61" y2="311.23"/><line class="cls-1" x1="594.59" y1="260.61" x2="594.59" y2="51.41"/><path class="cls-1" d="M544,1.5c3,0,24.61.16,39.29,17.83a50.36,50.36,0,0,1,11.32,32.15"/><line class="cls-1" x1="1.5" y1="261.96" x2="1.5" y2="51.78"/><line class="cls-1" x1="40.43" y1="142.14" x2="168.55" y2="142.14"/></g></g></svg>