<svg xmlns="http://www.w3.org/2000/svg" viewBox="0 0 158.51 267.16"><defs><style>.cls-1{fill:#fff;}.cls-1,.cls-2,.cls-3,.cls-4{stroke:#1d1d1b;stroke-miterlimit:10;}.cls-1,.cls-4{stroke-width:5px;}.cls-2{fill:#1d1d1b;}.cls-3,.cls-4{fill:none;}.cls-3{stroke-width:3px;}</style></defs><g id="Lag_2" data-name="Lag 2"><g id="Layer_1" data-name="Layer 1"><path class="cls-1" d="M15.19,139.68s-12.69,28-12.69,44.4c0,44.5,34.36,80.58,76.75,80.58S156,228.58,156,184.08a83.1,83.1,0,0,0-12.7-44.4"/><path class="cls-1" d="M141.31,147.29a75.91,75.91,0,0,0,7.21-32.49c0-42.37-39.83-72.75-68.73-72.79h-.08C41.71,42,10.9,74.6,10.9,114.8c0,11.68,7.22,32.49,7.22,32.49"/><rect class="cls-2" x="73.87" y="63.34" width="10.76" height="62.55" rx="5.38"/><line class="cls-3" x1="79.25" y1="45.84" x2="79.25" y2="65.75"/><line class="cls-3" x1="79.25" y1="126.32" x2="79.25" y2="144.88"/><path class="cls-3" d="M28.64,1.5c3,0,24.61.16,39.3,17.83A50.4,50.4,0,0,1,79.25,51.48"/><line class="cls-4" x1="10.99" y1="145.78" x2="147.51" y2="145.78"/></g></g></svg>